<svg width="333" height="78" viewBox="0 0 333 78" fill="none" xmlns="http://www.w3.org/2000/svg">
<path d="M90.0625 36H105.125C112.078 36 116.375 32.2031 116.375 26.9375C116.375 22.4219 113.047 19.4687 108.938 19.3125V19C112.641 18.2656 115.125 15.5312 115.125 12C115.125 7.125 111.25 4 103.937 4H90.0625V36ZM98.75 29.0625V22.3125H102.938C105.578 22.3125 107.188 23.5625 107.188 25.8125C107.188 27.9531 105.734 29.0625 102.813 29.0625H98.75ZM98.75 16.9375V10.8125H102.438C104.594 10.8125 106.188 11.9062 106.188 13.875C106.188 15.8437 104.594 16.9375 102.313 16.9375H98.75ZM128.203 4H119.578V36H128.203V4ZM144.16 36.4375C151.973 36.4375 156.598 31.4375 156.598 24.0625C156.598 16.6875 151.973 11.6875 144.16 11.6875C136.348 11.6875 131.723 16.6875 131.723 24.0625C131.723 31.4375 136.348 36.4375 144.16 36.4375ZM144.223 30.0625C141.91 30.0625 140.535 27.7656 140.535 24C140.535 20.2344 141.91 17.9375 144.223 17.9375C146.41 17.9375 147.785 20.2344 147.785 24C147.785 27.7656 146.41 30.0625 144.223 30.0625ZM171.66 36.4375C178.77 36.4375 183.129 32.3594 183.223 26H175.223C175.035 28.5156 173.676 29.875 171.785 29.875C169.52 29.875 168.035 27.9375 168.035 24C168.035 20.0625 169.52 18.125 171.785 18.125C173.691 18.125 174.988 19.4844 175.223 22H183.223C183.176 15.75 178.723 11.6875 171.66 11.6875C163.848 11.6875 159.223 16.6875 159.223 24.0625C159.223 31.4375 163.848 36.4375 171.66 36.4375ZM186.781 36H195.406V29.1875L196.703 27.5469L201.594 36H211.469L203.063 22.5156L211.219 12H201.531L195.719 20.0625H195.406V4H186.781V36ZM224.039 36.4375C231.148 36.4375 235.508 32.3594 235.602 26H227.602C227.414 28.5156 226.055 29.875 224.164 29.875C221.898 29.875 220.414 27.9375 220.414 24C220.414 20.0625 221.898 18.125 224.164 18.125C226.07 18.125 227.367 19.4844 227.602 22H235.602C235.555 15.75 231.102 11.6875 224.039 11.6875C216.227 11.6875 211.602 16.6875 211.602 24.0625C211.602 31.4375 216.227 36.4375 224.039 36.4375ZM247.785 22.5C247.801 20.125 249.176 18.6875 251.285 18.6875C253.488 18.6875 254.738 20.125 254.723 22.5V36H263.348V20.6875C263.363 15.4375 260.051 11.6875 254.973 11.6875C251.426 11.6875 248.801 13.5 247.723 16.5625H247.473V4H239.16V36H247.785V22.5ZM274.293 36.375C277.418 36.375 279.777 35.3125 281.23 32.625H281.418V36H289.48V19.5625C289.48 15.125 285.277 11.6875 278.418 11.6875C271.246 11.6875 267.715 15.4375 267.418 19.8125H275.355C275.559 18.3281 276.652 17.625 278.293 17.625C279.793 17.625 280.855 18.3125 280.855 19.5625V19.625C280.855 21.0156 279.324 21.4531 275.293 21.75C270.34 22.1094 266.48 24.1094 266.48 29.375C266.48 34.1562 269.699 36.375 274.293 36.375ZM277.105 30.9375C275.637 30.9375 274.605 30.2187 274.605 28.875C274.605 27.6406 275.48 26.6875 277.48 26.375C278.855 26.1562 280.012 25.875 280.918 25.5V27.5C280.918 29.6875 279.059 30.9375 277.105 30.9375ZM293.602 36H302.227V12H293.602V36ZM297.914 9.5C300.258 9.5 302.164 7.73438 302.164 5.5625C302.164 3.39062 300.258 1.625 297.914 1.625C295.57 1.625 293.664 3.39062 293.664 5.5625C293.664 7.73438 295.57 9.5 297.914 9.5ZM315.246 22.5C315.262 20.125 316.605 18.6875 318.746 18.6875C320.918 18.6875 322.199 20.125 322.184 22.5V36H330.809V20.6875C330.824 15.4687 327.527 11.6875 322.434 11.6875C318.902 11.6875 316.105 13.5312 315.059 16.5625H314.809V12H306.621V36H315.246V22.5ZM107.313 53H115.625C115.594 46.7187 110.75 42.5625 103 42.5625C95.3906 42.5625 90.0156 46.6562 90.0625 52.75C90.0469 57.75 93.5156 60.5312 99.1875 61.75L102.375 62.4375C105.938 63.2187 107.156 64.1094 107.188 65.5625C107.156 67.1406 105.719 68.25 102.938 68.25C99.6094 68.25 97.6406 66.6875 97.5 63.75H89.25C89.2813 71.7812 94.7188 75.375 103.063 75.375C111.172 75.375 116.031 71.875 116.063 65.5625C116.031 60.6875 113.125 57.2656 106.063 55.75L103.438 55.1875C100.406 54.5469 99.0469 53.6562 99.125 52.125C99.1406 50.7187 100.313 49.6875 103 49.6875C105.813 49.6875 107.141 50.9219 107.313 53ZM135.055 64.5C135.07 66.875 133.695 68.3125 131.555 68.3125C129.383 68.3125 128.133 66.875 128.117 64.5V51H119.492V66.3125C119.508 71.5625 122.82 75.3125 127.867 75.3125C131.445 75.3125 134.195 73.5 135.242 70.4375H135.492V75H143.68V51H135.055V64.5ZM148.066 75H156.691V61C156.691 58.9062 157.785 57.625 159.566 57.625C161.348 57.625 162.504 58.9062 162.504 61V75H170.754V61C170.754 58.9062 171.848 57.625 173.629 57.625C175.41 57.625 176.566 58.9062 176.566 61V75H185.191V58.8125C185.191 53.8906 182.035 50.6875 177.441 50.6875C173.879 50.6875 171.004 52.625 170.191 55.5625H169.941C169.441 52.625 166.754 50.6875 163.379 50.6875C160.051 50.6875 157.504 52.5625 156.504 55.5625H156.254V51H148.066V75ZM189.445 75H198.07V61C198.07 58.9062 199.164 57.625 200.945 57.625C202.727 57.625 203.883 58.9062 203.883 61V75H212.133V61C212.133 58.9062 213.227 57.625 215.008 57.625C216.789 57.625 217.945 58.9062 217.945 61V75H226.57V58.8125C226.57 53.8906 223.414 50.6875 218.82 50.6875C215.258 50.6875 212.383 52.625 211.57 55.5625H211.32C210.82 52.625 208.133 50.6875 204.758 50.6875C201.43 50.6875 198.883 52.5625 197.883 55.5625H197.633V51H189.445V75ZM242.324 75.4375C248.98 75.4375 253.262 72.25 254.074 67.25H246.199C245.699 68.6094 244.277 69.375 242.512 69.375C239.949 69.375 238.449 67.6875 238.449 65.375V65H254.074V63C254.074 55.3594 249.387 50.6875 242.137 50.6875C234.699 50.6875 229.949 55.625 229.949 63.0625C229.949 70.8281 234.637 75.4375 242.324 75.4375ZM238.449 60.25C238.496 58.1719 240.215 56.75 242.324 56.75C244.465 56.75 246.09 58.1875 246.137 60.25H238.449ZM257.594 75H266.219V62.5C266.219 59.75 268.109 57.9375 270.656 57.9375C271.547 57.9375 272.984 58.0781 273.844 58.375V51.0156C273.156 50.8125 272.406 50.6875 271.656 50.6875C269.094 50.6875 267.094 52.1875 266.219 55.5625H265.969V51H257.594V75Z" fill="white"/>
<path fill-rule="evenodd" clip-rule="evenodd" d="M0 3.97522V75.9752H54C63.9411 75.9752 72 67.9164 72 57.9752C72 48.0341 63.9411 39.9752 54 39.9752C63.9411 39.9752 72 31.9163 72 21.9752C72 12.0341 63.9411 3.97522 54 3.97522H0ZM28.0516 20.8846C24.4654 17.1951 20.3481 16.223 16.8518 16.2964C12.3566 16.3907 8.88663 18.2155 8.88663 18.2155C8.88663 18.2155 14.2051 20.4671 17.4624 22.4824C18.0629 22.8537 19.2625 22.4918 20.3941 22.1505C21.4208 21.8407 22.3916 21.5478 22.8082 21.8349C23.3131 22.1818 22.586 23.0718 21.9669 23.8296C21.5091 24.39 21.1103 24.8781 21.3121 25.021C22.4719 25.8415 23.0614 26.3469 23.9921 27.215C26.8085 29.8393 28.7279 31.8124 30.1378 33.2616C30.2852 33.4131 30.427 33.5589 30.5637 33.6991C27.6766 32.5888 24.4628 31.6182 21.8388 31.0393C19.7651 30.5838 16.7407 30.4515 15.118 30.7878C1.75477 33.5519 4.30979 45.3118 4.30979 45.3118C4.30979 45.3118 7.46447 43.3332 11.4687 41.399C12.2052 41.0434 12.7059 39.8291 13.1785 38.6828C13.6094 37.6377 14.017 36.6492 14.5587 36.4194C15.2121 36.1429 15.2818 37.2808 15.3413 38.2523C15.3854 38.9732 15.4239 39.6025 15.6913 39.4938C17.2161 38.8737 18.7455 38.3356 20.1749 37.9659C24.997 36.7162 28.3471 36.7976 30.7455 36.9644C34.7884 53.7231 25.1662 70.827 21.5879 75.9752H35.4902C36.0486 72.9201 37.5222 62.059 37.5222 52.5645C37.5222 46.1791 36.5453 41.0858 35.8397 38.1243C38.3161 39.0572 41.5866 40.5948 45.0073 44.3708C45.9976 45.4655 46.9779 46.7589 47.911 48.116C48.0747 48.3538 48.4535 47.8478 48.8874 47.2684C49.4718 46.488 50.1559 45.5743 50.5489 46.1642C50.8757 46.6547 50.672 47.7061 50.4568 48.817C50.2209 50.0344 49.9712 51.3233 50.3905 52.0241C52.6741 55.8377 54.2263 59.2209 54.2263 59.2209C54.2263 59.2209 61.0591 49.3552 51.4065 39.7081C47.4409 35.7447 41.2207 35.2806 35.9702 35.2782C36.6341 34.7821 37.3528 34.2157 38.1974 33.5501C39.0701 32.8624 40.0772 32.0687 41.2974 31.1371C41.8283 30.7327 41.7207 29.6868 41.6295 28.8015C41.5605 28.1312 41.501 27.553 41.7355 27.4153C42.0766 27.2151 42.694 27.6762 43.3305 28.1516C43.9985 28.6505 44.6875 29.1652 45.1005 28.9478C45.958 28.4979 47.1852 28.0897 48.3467 27.7033C48.8661 27.5306 49.3723 27.3622 49.8265 27.1964C50.0832 27.1031 49.9046 26.4776 49.6995 25.7597C49.4223 24.7893 49.0969 23.65 49.7333 23.428C50.2607 23.2439 51.2361 23.7685 52.2667 24.3227C53.3999 24.9321 54.6 25.5775 55.3448 25.3564C59.3944 24.1592 63.7714 23.7494 63.7714 23.7494C63.7714 23.7494 53.7793 14.4463 42.621 21.0383C37.1804 24.2528 34.9094 28.2388 33.5745 32.092C33.2752 28.6565 32.1437 25.0933 28.0516 20.8846Z" fill="white"/>
</svg>
