<svg width="270" height="60" viewBox="0 0 270 60" fill="none" xmlns="http://www.w3.org/2000/svg">
<path fill-rule="evenodd" clip-rule="evenodd" d="M0 1.89661V60H44.0738C52.1876 60 58.7651 53.4966 58.7651 45.4741C58.7651 37.4517 52.1876 30.9483 44.0738 30.9483C52.1876 30.9483 58.7651 24.4449 58.7651 16.4225C58.7651 8.40005 52.1876 1.89661 44.0738 1.89661H0ZM22.8952 15.5424C19.9682 12.5649 16.6078 11.7805 13.7541 11.8397C10.0852 11.9158 7.2531 13.3884 7.2531 13.3884C7.2531 13.3884 11.5939 15.2054 14.2525 16.8317C14.7426 17.1314 15.7217 16.8394 16.6453 16.5639C17.4833 16.3139 18.2756 16.0776 18.6157 16.3092C19.0277 16.5891 18.4343 17.3073 17.929 17.9189C17.5553 18.3711 17.2298 18.765 17.3946 18.8804C18.3411 19.5425 18.8223 19.9503 19.5819 20.6509C21.8806 22.7687 23.4472 24.3609 24.5979 25.5304C24.7182 25.6527 24.834 25.7704 24.9455 25.8835C22.5891 24.9875 19.9661 24.2042 17.8244 23.7371C16.1319 23.3695 13.6635 23.2627 12.3391 23.5341C1.43221 25.7648 3.51757 35.2549 3.51757 35.2549C3.51757 35.2549 6.09236 33.6581 9.36052 32.0972C9.96163 31.8103 10.3703 30.8304 10.7561 29.9053C11.1078 29.0619 11.4405 28.2642 11.8826 28.0788C12.4158 27.8557 12.4727 28.7739 12.5213 29.5579C12.5573 30.1397 12.5887 30.6475 12.807 30.5598C14.0515 30.0594 15.2998 29.6251 16.4664 29.3268C20.4021 28.3183 23.1364 28.384 25.0939 28.5186C28.3937 42.0427 20.5402 55.8455 17.6197 60H28.9665C29.4222 57.5345 30.6249 48.7697 30.6249 41.1077C30.6249 35.9548 29.8276 31.8445 29.2517 29.4546C31.2729 30.2074 33.9422 31.4483 36.7341 34.4955C37.5424 35.3789 38.3425 36.4227 39.104 37.5178C39.2377 37.7097 39.5469 37.3014 39.901 36.8338C40.3779 36.2041 40.9363 35.4667 41.2571 35.9428C41.5238 36.3386 41.3576 37.187 41.1819 38.0836C40.9894 39.066 40.7856 40.1061 41.1278 40.6717C42.9917 43.7492 44.2585 46.4794 44.2585 46.4794C44.2585 46.4794 49.8353 38.5179 41.9571 30.7327C38.7204 27.5343 33.6436 27.1598 29.3582 27.1578C29.9001 26.7575 30.4867 26.3004 31.176 25.7633C31.8883 25.2083 32.7103 24.5678 33.7062 23.816C34.1395 23.4897 34.0517 22.6456 33.9773 21.9312C33.921 21.3903 33.8724 20.9237 34.0637 20.8126C34.3422 20.651 34.8461 21.0231 35.3656 21.4068C35.9107 21.8094 36.4731 22.2247 36.8102 22.0493C37.5101 21.6862 38.5117 21.3568 39.4597 21.045C39.8836 20.9056 40.2968 20.7697 40.6675 20.6359C40.877 20.5606 40.7312 20.0558 40.5638 19.4765C40.3376 18.6934 40.072 17.774 40.5914 17.5948C41.0218 17.4463 41.8179 17.8696 42.6591 18.3169C43.5841 18.8087 44.5635 19.3295 45.1714 19.151C48.4766 18.1849 52.0491 17.8542 52.0491 17.8542C52.0491 17.8542 43.8937 10.3467 34.7865 15.6664C30.346 18.2604 28.4924 21.4771 27.4029 24.5866C27.1586 21.8142 26.2351 18.9387 22.8952 15.5424Z" fill="#00C08C"/>
<path d="M73.5074 27.7403H85.8011C91.4761 27.7403 94.9832 24.6763 94.9832 20.427C94.9832 16.7829 92.2668 14.3998 88.9128 14.2737V14.0215C91.9352 13.4288 93.9629 11.2222 93.9629 8.37254C93.9629 4.43845 90.8002 1.9166 84.8319 1.9166H73.5074V27.7403ZM80.598 22.1418V16.6946H84.0157C86.171 16.6946 87.4845 17.7034 87.4845 19.5191C87.4845 21.2466 86.2985 22.1418 83.9137 22.1418H80.598ZM80.598 12.3571V7.41423H83.6076C85.3675 7.41423 86.6683 8.29688 86.6683 9.88564C86.6683 11.4744 85.3675 12.3571 83.5056 12.3571H80.598Z" fill="white"/>
<path d="M104.637 1.9166H97.5975V27.7403H104.637V1.9166Z" fill="white"/>
<path d="M117.661 28.0934C124.037 28.0934 127.812 24.0584 127.812 18.1069C127.812 12.1553 124.037 8.12035 117.661 8.12035C111.284 8.12035 107.51 12.1553 107.51 18.1069C107.51 24.0584 111.284 28.0934 117.661 28.0934ZM117.712 22.9488C115.825 22.9488 114.702 21.0953 114.702 18.0564C114.702 15.0176 115.825 13.164 117.712 13.164C119.497 13.164 120.62 15.0176 120.62 18.0564C120.62 21.0953 119.497 22.9488 117.712 22.9488Z" fill="white"/>
<path d="M140.106 28.0934C145.908 28.0934 149.466 24.8024 149.543 19.6704H143.014C142.861 21.7005 141.751 22.7975 140.208 22.7975C138.359 22.7975 137.147 21.234 137.147 18.0564C137.147 14.8789 138.359 13.3154 140.208 13.3154C141.764 13.3154 142.822 14.4124 143.014 16.4425H149.543C149.505 11.3988 145.87 8.12035 140.106 8.12035C133.729 8.12035 129.955 12.1553 129.955 18.1069C129.955 24.0584 133.729 28.0934 140.106 28.0934Z" fill="white"/>
<path d="M152.447 27.7403H159.487V22.2427L160.546 20.9187L164.537 27.7403H172.597L165.736 16.8586L172.393 8.37254H164.486L159.742 14.8789H159.487V1.9166H152.447V27.7403Z" fill="white"/>
<path d="M182.857 28.0934C188.659 28.0934 192.217 24.8024 192.294 19.6704H185.764C185.611 21.7005 184.502 22.7975 182.959 22.7975C181.109 22.7975 179.898 21.234 179.898 18.0564C179.898 14.8789 181.109 13.3154 182.959 13.3154C184.514 13.3154 185.573 14.4124 185.764 16.4425H192.294C192.255 11.3988 188.621 8.12035 182.857 8.12035C176.48 8.12035 172.705 12.1553 172.705 18.1069C172.705 24.0584 176.48 28.0934 182.857 28.0934Z" fill="white"/>
<path d="M202.238 16.8459C202.25 14.9293 203.373 13.7693 205.094 13.7693C206.893 13.7693 207.913 14.9293 207.9 16.8459V27.7403H214.94V15.3833C214.952 11.1466 212.249 8.12035 208.104 8.12035C205.209 8.12035 203.067 9.58302 202.187 12.0544H201.983V1.9166H195.198V27.7403H202.238V16.8459Z" fill="white"/>
<path d="M223.873 28.043C226.424 28.043 228.349 27.1855 229.535 25.0167H229.688V27.7403H236.269V14.4754C236.269 10.8944 232.838 8.12035 227.24 8.12035C221.386 8.12035 218.504 11.1466 218.262 14.6772H224.74C224.906 13.4793 225.799 12.9119 227.138 12.9119C228.362 12.9119 229.229 13.4667 229.229 14.4754V14.5258C229.229 15.6481 227.979 16.0011 224.689 16.2407C220.646 16.5307 217.497 18.1447 217.497 22.394C217.497 26.2524 220.124 28.043 223.873 28.043ZM226.168 23.6549C224.97 23.6549 224.128 23.0749 224.128 21.9905C224.128 20.9944 224.842 20.2252 226.475 19.973C227.597 19.7965 228.54 19.5695 229.28 19.2669V20.8809C229.28 22.6462 227.763 23.6549 226.168 23.6549Z" fill="white"/>
<path d="M239.632 27.7403H246.672V8.37254H239.632V27.7403ZM243.152 6.35506C245.065 6.35506 246.621 4.93021 246.621 3.17753C246.621 1.42484 245.065 0 243.152 0C241.239 0 239.683 1.42484 239.683 3.17753C239.683 4.93021 241.239 6.35506 243.152 6.35506Z" fill="white"/>
<path d="M257.298 16.8459C257.311 14.9293 258.408 13.7693 260.155 13.7693C261.927 13.7693 262.973 14.9293 262.96 16.8459V27.7403H270V15.3833C270.013 11.1718 267.322 8.12035 263.164 8.12035C260.282 8.12035 258 9.60824 257.145 12.0544H256.941V8.37254H250.259V27.7403H257.298V16.8459Z" fill="white"/>
<path d="M87.5865 41.4592H94.371C94.3455 36.3903 90.3922 33.0362 84.0667 33.0362C77.8561 33.0362 73.4691 36.3398 73.5074 41.2574C73.4946 45.2924 76.3258 47.5368 80.955 48.5204L83.5566 49.0752C86.4643 49.7056 87.459 50.4244 87.4845 51.597C87.459 52.8705 86.2857 53.7658 84.0157 53.7658C81.2994 53.7658 79.6925 52.5049 79.5777 50.1343H72.8442C72.8697 56.6155 77.3077 59.5156 84.1178 59.5156C90.7365 59.5156 94.7026 56.6911 94.7281 51.597C94.7026 47.6629 92.3306 44.9015 86.5663 43.6784L84.4238 43.2245C81.9498 42.7075 80.8403 41.9888 80.904 40.7531C80.9168 39.6182 81.8733 38.786 84.0667 38.786C86.3623 38.786 87.4462 39.7822 87.5865 41.4592Z" fill="white"/>
<path d="M110.229 50.7396C110.242 52.6562 109.12 53.8162 107.373 53.8162C105.6 53.8162 104.58 52.6562 104.567 50.7396V39.8452H97.5274V52.2023C97.5401 56.439 100.244 59.4652 104.363 59.4652C107.283 59.4652 109.528 58.0025 110.382 55.5311H110.586V59.213H117.269V39.8452H110.229V50.7396Z" fill="white"/>
<path d="M120.849 59.213H127.889V47.9151C127.889 46.2255 128.781 45.1915 130.235 45.1915C131.689 45.1915 132.633 46.2255 132.633 47.9151V59.213H139.366V47.9151C139.366 46.2255 140.259 45.1915 141.713 45.1915C143.167 45.1915 144.11 46.2255 144.11 47.9151V59.213H151.15V46.1498C151.15 42.1779 148.574 39.593 144.824 39.593C141.917 39.593 139.57 41.1566 138.907 43.5271H138.703C138.295 41.1566 136.102 39.593 133.347 39.593C130.631 39.593 128.552 41.1061 127.736 43.5271H127.532V39.8452H120.849V59.213Z" fill="white"/>
<path d="M154.622 59.213H161.661V47.9151C161.661 46.2255 162.554 45.1915 164.008 45.1915C165.462 45.1915 166.405 46.2255 166.405 47.9151V59.213H173.139V47.9151C173.139 46.2255 174.032 45.1915 175.485 45.1915C176.939 45.1915 177.883 46.2255 177.883 47.9151V59.213H184.923V46.1498C184.923 42.1779 182.347 39.593 178.597 39.593C175.69 39.593 173.343 41.1566 172.68 43.5271H172.476C172.068 41.1566 169.874 39.593 167.12 39.593C164.403 39.593 162.325 41.1061 161.508 43.5271H161.304V39.8452H154.622V59.213Z" fill="white"/>
<path d="M197.781 59.5661C203.213 59.5661 206.708 56.9938 207.371 52.9588H200.943C200.535 54.0558 199.375 54.6737 197.934 54.6737C195.842 54.6737 194.618 53.3119 194.618 51.4457V51.1431H207.371V49.5291C207.371 43.3632 203.545 39.593 197.628 39.593C191.557 39.593 187.68 43.5775 187.68 49.5795C187.68 55.8463 191.506 59.5661 197.781 59.5661ZM194.618 47.3099C194.656 45.6328 196.059 44.4854 197.781 44.4854C199.528 44.4854 200.854 45.6455 200.892 47.3099H194.618Z" fill="white"/>
<path d="M210.243 59.213H217.283V49.1256C217.283 46.9064 218.826 45.4437 220.905 45.4437C221.632 45.4437 222.805 45.5572 223.506 45.7968V39.8578C222.945 39.6939 222.333 39.593 221.721 39.593C219.629 39.593 217.997 40.8035 217.283 43.5271H217.079V39.8452H210.243V59.213Z" fill="white"/>
</svg>
